:SAMPLES-PER-SECOND 24
:FULLY-SPECIFIED
:DEGREES
132
root  -0.0632561 40.6833 2.5437 95.4364 -29.9723 -84.8309
RightUpLeg  -38.1534 -48.1608 -27.1085
RightLeg  97.7973 -7.32251 37.7963
RightFoot  -16.2724 1.08887 27.4123
RightToes  -1.74623e-010 0 -2.59999e-017
Spine  3.88931 -2.57323 -11.552
Spine1  8.17972 -11.7896 29.7866
HEad  0.799175 -43.0977 28.5285
LeftShoulder1  1.61268 -3.75012 -15.4274
LeftArm  44.0472 -37.2584 -81.0972
LeftForeArm  69.2388 -78.2617 -52.1083
LeftHand  0.0773998 7.09377 7.18999
RightShoulder  3.8945 6.173 34.3586
RightArm  5.69071 -19.9768 20.8894
RightForeArm  132.836 63.9181 156.1
RightHand  -0.955119 0.357349 -19.2755
LeftUpLeg  -19.3236 27.7731 40.2237
LeftLeg  4.23503 30.3335 0.384458
LeftFoot  -2.74294 -0.659657 8.95772
LeftToes  -6.27559e-011 -2.10356e-011 8.24929e-012
133
root  -0.682251 40.7202 2.7517 89.2633 -25.2227 -78.4314
RightUpLeg  -15.122 -31.1185 -39.1999
RightLeg  67.3438 14.603 32.5678
RightFoot  -14.4279 0.63434 26.5453
RightToes  -1.74623e-010 0 -2.59999e-017
Spine  4.60435 -2.19281 -10.0648
Spine1  6.8168 -11.9246 33.5871
HEad  2.64098 -46.0805 28.3583
LeftShoulder1  1.60647 -3.8947 -14.8648
LeftArm  49.537 -35.5608 -87.0887
LeftForeArm  81.0193 -79.7613 -67.287
LeftHand  0.0397711 6.97508 5.14894
RightShoulder  3.8461 6.11371 34.1059
RightArm  4.9907 -21.593 20.5949
RightForeArm  131.812 63.8022 156.116
RightHand  -0.94149 0.625447 -18.1804
LeftUpLeg  -17.4799 25.5144 41.8187
LeftLeg  -4.58052 25.5804 -0.421819
LeftFoot  -1.04507 -0.816455 9.11404
LeftToes  -6.27559e-011 -2.10356e-011 8.24929e-012
134
root  -1.3057 40.7418 2.26368 85.1718 -21.3534 -72.67
RightUpLeg  4.01593 -7.47801 -38.0642
RightLeg  24.4127 23.3077 12.0561
RightFoot  -17.0945 1.10429 24.0718
RightToes  -1.74623e-010 0 -2.59999e-017
Spine  3.54813 -1.90011 -10.1344
Spine1  5.32789 -11.3485 35.3124
HEad  3.02058 -47.6414 27.3283
LeftShoulder1  1.51722 -3.96951 -13.3103
LeftArm  53.4342 -33.84 -91.5358
LeftForeArm  100.656 -80.3452 -91.1105
LeftHand  0.0106734 6.95124 3.29377
RightShoulder  3.79036 6.06577 33.7265
RightArm  3.96229 -24.6783 21.2534
RightForeArm  134.518 62.021 158.006
RightHand  -0.875384 0.424581 -17.4929
LeftUpLeg  -21.8421 28.306 42.289
LeftLeg  -3.84526 20.7173 -0.583764
LeftFoot  -1.37752 -0.806036 9.31732
LeftToes  -6.27559e-011 -2.10356e-011 8.24929e-012
135
root  -1.64884 40.7223 1.66139 84.508 -17.378 -69.5472
RightUpLeg  13.2435 -15.3866 -37.775
RightLeg  3.59831 35.1356 -1.15495
RightFoot  -18.9797 1.61452 25.7252
RightToes  -1.74623e-010 0 -2.59999e-017
Spine  1.81658 -1.22106 -9.04436
Spine1  3.97636 -9.7668 35.3903
HEad  2.11424 -47.9271 27.1295
LeftShoulder1  1.49959 -3.91983 -13.1992
LeftArm  55.4935 -34.3621 -92.5902
LeftForeArm  120.94 -79.0505 -116.071
LeftHand  -0.00302056 7.47052 1.95194
RightShoulder  3.7338 6.04721 33.213
RightArm  4.76083 -24.9397 21.4799
RightForeArm  135.681 61.3062 158.721
RightHand  -0.885548 0.627821 -17.1176
LeftUpLeg  -27.065 31.1599 43.5326
LeftLeg  -1.8376 15.2244 0.290074
LeftFoot  -1.23465 -0.651192 7.43744
LeftToes  -6.27559e-011 -2.10356e-011 8.24929e-012
136
root  -1.6998 40.6459 1.2986 84.5227 -14.4343 -68.3672
RightUpLeg  14.0174 -17.9462 -39.2929
RightLeg  7.78217 33.7122 4.71117
RightFoot  -18.8278 1.56526 25.4992
RightToes  -1.74623e-010 0 -2.59999e-017
Spine  1.99343 -0.677264 -7.57627
Spine1  2.77212 -8.30086 34.64
HEad  1.64137 -48.5796 26.8019
LeftShoulder1  1.61757 -4.06884 -14.4741
LeftArm  53.9116 -34.9178 -90.2408
LeftForeArm  131.862 -77.3899 -128.583
LeftHand  -0.00215548 7.55172 1.96147
RightShoulder  3.73734 6.07884 33.1199
RightArm  7.23316 -22.6672 20.2885
RightForeArm  134.029 61.9089 158.069
RightHand  -0.931041 1.18322 -16.5138
LeftUpLeg  -28.8058 30.9444 45.1398
LeftLeg  -3.15448 13.8329 1.60562
LeftFoot  0.227845 -0.599113 5.88473
LeftToes  -6.27559e-011 -2.10356e-011 8.24929e-012
